# Blender v3.5.0 OBJ File: ''
# www.blender.org
mtllib float_Body.mtl
o 立方体.001
v -0.492627 0.227580 -0.542665
v 0.693804 1.227580 -0.542665
v 0.507373 0.227580 -0.542665
v 0.507373 0.227580 0.457335
v 0.693804 1.227580 0.457335
v -0.492627 0.227580 0.457335
v -0.694095 1.227580 0.457335
v -0.694095 1.227580 -0.542665
vt 0.000000 0.061541
vt 0.305460 0.423948
vt 0.000000 0.367001
vt 0.594004 0.201413
vt 0.396003 0.000000
vt 0.594004 0.000000
vt 0.198001 0.274806
vt 0.000000 0.509721
vt 0.000000 0.311719
vt 0.610920 0.311598
vt 0.305460 0.000000
vt 0.610920 0.000000
vt 0.792005 0.000000
vt 0.594004 0.198001
vt 0.198001 0.000000
vt 0.000000 0.274806
vt 0.000000 0.000000
vt 0.305460 0.000000
vt 0.396003 0.201413
vt 0.198001 0.549612
vt 0.305460 0.311598
vt 0.792005 0.198001
vt 0.198001 0.274806
vn -0.0000 -0.0000 -1.0000
vn 0.9831 -0.1833 -0.0000
vn 0.0000 -0.0000 1.0000
vn -0.9803 -0.1975 0.0000
vn 0.0000 -1.0000 0.0000
vn -0.0000 1.0000 -0.0000
usemtl マテリアル.001
s 1
f 1/1/1 2/2/1 3/3/1
f 2/4/2 4/5/2 3/6/2
f 5/7/3 6/8/3 4/9/3
f 7/10/4 1/11/4 6/12/4
f 4/13/5 1/14/5 3/6/5
f 2/15/6 7/16/6 5/17/6
f 1/1/1 8/18/1 2/2/1
f 2/4/2 5/19/2 4/5/2
f 5/7/3 7/20/3 6/8/3
f 7/10/4 8/21/4 1/11/4
f 4/13/5 6/22/5 1/14/5
f 2/15/6 8/23/6 7/16/6
