# Blender v3.5.0 OBJ File: ''
# www.blender.org
mtllib float_R_arm.mtl
o 立方体.004
v -0.508186 0.227116 -0.499263
v -1.230101 -2.002692 -0.396104
v -1.969696 -1.456995 -0.407687
v -0.082840 -0.101814 -0.491976
v -1.215204 -1.961296 0.602928
v -0.493289 0.268512 0.499769
v -1.954799 -1.415599 0.591345
v -0.067943 -0.060418 0.507056
vt 0.992274 0.877451
vt 0.868404 0.622997
vt 0.992274 0.610920
vt 0.000000 0.729408
vt 0.258869 0.423948
vt 0.258869 0.729408
vt 0.026177 0.913359
vt 0.106471 0.748421
vt 0.106471 0.921187
vt 0.396003 0.868810
vt 0.568769 0.670808
vt 0.568769 0.868810
vt 0.106471 0.747613
vt 0.187145 0.945614
vt 0.106471 0.945614
vt 0.792005 0.000000
vt 0.898479 0.198001
vt 0.792005 0.198001
vt 0.828020 0.878697
vt 0.000000 0.423948
vt 0.000000 0.747613
vt 0.396003 0.670808
vt 0.187145 0.747613
vt 0.898479 0.000000
vn -0.0149 -0.0414 -0.9990
vn 0.8563 -0.5164 0.0086
vn 0.0149 0.0414 0.9990
vn -0.7556 0.6549 -0.0159
vn -0.5936 -0.8036 0.0422
vn 0.6117 0.7900 -0.0419
usemtl マテリアル.003
s 1
f 1/1/1 2/2/1 3/3/1
f 4/4/2 5/5/2 2/6/2
f 5/7/3 6/8/3 7/9/3
f 6/10/4 3/11/4 7/12/4
f 5/13/5 3/14/5 2/15/5
f 4/16/6 6/17/6 8/18/6
f 1/1/1 4/19/1 2/2/1
f 4/4/2 8/20/2 5/5/2
f 5/7/3 8/21/3 6/8/3
f 6/10/4 1/22/4 3/11/4
f 5/13/5 7/23/5 3/14/5
f 4/16/6 1/24/6 6/17/6
