# Blender v3.5.0 OBJ File: ''
# www.blender.org
mtllib float_Head.mtl
o Cube.002
v -0.998585 2.575657 0.940481
v 1.001415 2.575657 -1.059519
v -0.998585 2.575657 -1.059519
v 1.001415 0.575657 0.940481
v 1.001415 0.575656 -1.059519
v 1.001415 2.575657 0.940481
v -0.998585 0.575657 0.940481
v -0.998585 0.575657 -1.059519
vt 0.610920 0.311598
vt 0.305460 0.617058
vt 0.305460 0.311598
vt 0.916381 0.305460
vt 0.610920 0.000000
vt 0.916381 0.000000
vt 0.916381 0.610921
vt 0.610920 0.305460
vt 0.916381 0.305460
vt 0.198001 0.549612
vt 0.000000 0.747613
vt 0.000000 0.549612
vt 0.594004 0.670808
vt 0.396003 0.472807
vt 0.594004 0.472807
vt 0.792005 0.670808
vt 0.792005 0.472807
vt 0.610920 0.617058
vt 0.610920 0.305460
vt 0.610920 0.610920
vt 0.198001 0.747613
vt 0.396003 0.670808
vn 0.0000 1.0000 -0.0000
vn 1.0000 -0.0000 0.0000
vn -0.0000 0.0000 1.0000
vn -0.0000 -1.0000 0.0000
vn 0.0000 -0.0000 -1.0000
vn -1.0000 0.0000 -0.0000
usemtl Material.002
s 1
f 1/1/1 2/2/1 3/3/1
f 2/4/2 4/5/2 5/6/2
f 6/7/3 7/8/3 4/9/3
f 8/10/4 4/11/4 7/12/4
f 3/13/5 5/14/5 8/15/5
f 1/16/6 8/15/6 7/17/6
f 1/1/1 6/18/1 2/2/1
f 2/4/2 6/19/2 4/5/2
f 6/7/3 1/20/3 7/8/3
f 8/10/4 5/21/4 4/11/4
f 3/13/5 2/22/5 5/14/5
f 1/16/6 3/13/6 8/15/6
