# Blender 3.5.0
# www.blender.org
mtllib float_L_arm.mtl
o 立方体.002
v -3.670658 -0.790590 0.039485
v -3.839941 0.069704 0.039485
v -1.625290 -0.086942 0.039485
v -1.735239 0.427454 0.039485
v -3.670658 -0.790590 1.039485
v -3.839941 0.069704 1.039485
v -1.625290 -0.086942 1.039485
v -1.735239 0.427454 1.039485
vn -0.0000 -0.0000 -1.0000
vn 0.9779 0.2090 -0.0000
vn -0.0000 -0.0000 1.0000
vn -0.9812 -0.1931 -0.0000
vn 0.3253 -0.9456 -0.0000
vn -0.1676 0.9859 -0.0000
vt 0.157372 1.000000
vt 0.468966 0.617058
vt 0.352383 0.872788
vt 0.002870 0.946489
vt 0.305460 0.617058
vt 0.828020 0.610920
vt 0.896157 0.670808
vt 0.198001 0.872788
vt 0.157372 0.761832
vt 0.000000 0.729408
vt 0.792005 0.670808
vt 0.610920 0.610920
vt 1.000000 0.274806
vt 0.468966 0.922518
vt 0.352383 0.674787
vt 0.899851 0.309492
vt 0.305460 0.922518
vt 0.828020 0.916381
vt 0.896157 0.472807
vt 1.000000 0.429188
vt 0.198001 0.674787
vt 0.610920 0.916381
vt 0.792005 0.472807
vt 0.897991 0.450205
s 0
usemtl マテリアル.002
f 2/4/1 3/9/1 1/1/1
f 4/11/2 7/19/2 3/7/2
f 7/20/3 6/16/3 5/13/3
f 6/17/4 1/2/4 5/14/4
f 7/21/5 1/3/5 3/8/5
f 4/12/6 6/18/6 8/22/6
f 2/4/1 4/10/1 3/9/1
f 4/11/2 8/23/2 7/19/2
f 7/20/3 8/24/3 6/16/3
f 6/17/4 2/5/4 1/2/4
f 7/21/5 5/15/5 1/3/5
f 4/12/6 2/6/6 6/18/6
